<?xml version="1.0" standalone="no"?>
<!DOCTYPE svg PUBLIC "-//W3C//DTD SVG 20010904//EN"
 "http://www.w3.org/TR/2001/REC-SVG-20010904/DTD/svg10.dtd">
<svg version="1.0" xmlns="http://www.w3.org/2000/svg"
 width="150.000000pt" height="150.000000pt" viewBox="0 0 150.000000 150.000000"
 preserveAspectRatio="xMidYMid meet">

<g transform="translate(0.000000,150.000000) scale(0.100000,-0.100000)"
fill="#000000" stroke="none">
<path d="M275 835 c0 -70 4 -115 10 -115 6 0 10 45 10 115 0 70 -4 115 -10
115 -6 0 -10 -45 -10 -115z"/>
<path d="M355 924 c7 -15 11 -33 8 -42 -4 -10 -2 -13 5 -8 16 9 15 49 0 64
-21 21 -27 13 -13 -14z"/>
<path d="M480 835 c0 -70 4 -115 10 -115 6 0 10 45 10 115 0 70 -4 115 -10
115 -6 0 -10 -45 -10 -115z"/>
<path d="M600 931 c-18 -34 -11 -50 37 -95 38 -36 46 -49 45 -77 -1 -24 2 -29
8 -19 20 32 10 63 -33 104 -50 46 -58 63 -45 89 5 9 6 17 4 17 -3 0 -10 -9
-16 -19z"/>
<path d="M780 835 c0 -121 16 -160 22 -52 4 88 -1 167 -13 167 -5 0 -9 -49 -9
-115z"/>
<path d="M948 898 c-5 -80 3 -178 13 -178 5 0 9 52 9 115 0 66 -4 115 -9 115
-6 0 -11 -24 -13 -52z"/>
<path d="M1118 932 c-3 -10 0 -23 7 -29 7 -6 25 -50 40 -97 17 -51 33 -86 41
-86 11 0 10 11 -5 48 -52 130 -73 182 -76 182 -1 0 -5 -8 -7 -18z"/>
<path d="M351 837 c26 -20 41 -57 35 -85 l-6 -27 15 27 c18 32 7 71 -24 87
-27 15 -40 13 -20 -2z"/>
<path d="M1067 798 c-8 -24 -18 -51 -22 -60 -4 -10 -3 -18 1 -18 10 0 47 110
40 117 -2 2 -11 -15 -19 -39z"/>
<path d="M1118 813 c7 -3 16 -2 19 1 4 3 -2 6 -13 5 -11 0 -14 -3 -6 -6z"/>
<path d="M580 730 c0 -9 39 -25 45 -18 2 2 -7 8 -21 15 -13 6 -24 7 -24 3z"/>
<path d="M825 650 c-3 -5 -1 -10 4 -10 6 0 11 5 11 10 0 6 -2 10 -4 10 -3 0
-8 -4 -11 -10z"/>
<path d="M928 633 c7 -3 16 -2 19 1 4 3 -2 6 -13 5 -11 0 -14 -3 -6 -6z"/>
<path d="M861 614 c0 -11 3 -14 6 -6 3 7 2 16 -1 19 -3 4 -6 -2 -5 -13z"/>
</g>
</svg>
